<svg width="42" height="42" viewBox="0 0 42 42" fill="none" xmlns="http://www.w3.org/2000/svg">
<path fill-rule="evenodd" clip-rule="evenodd" d="M21 2.1875C19.9412 2.1875 18.9665 2.45 17.9008 2.891C16.87 3.318 15.673 3.94625 14.1837 4.7285L10.5648 6.62725C8.736 7.58625 7.27475 8.3545 6.1425 9.10875C4.9735 9.891 4.0705 10.7135 3.41425 11.8282C2.75975 12.9395 2.46575 14.1435 2.324 15.5767C2.1875 16.968 2.1875 18.6777 2.1875 20.8302V21.1698C2.1875 23.3223 2.1875 25.032 2.324 26.4233C2.46575 27.8582 2.7615 29.0605 3.41425 30.1717C4.0705 31.2865 4.97175 32.109 6.14425 32.8913C7.273 33.6455 8.736 34.4137 10.5648 35.3727L14.1837 37.2715C15.673 38.0537 16.87 38.682 17.9008 39.109C18.9683 39.55 19.9412 39.8125 21 39.8125C22.0588 39.8125 23.0335 39.55 24.0993 39.109C25.13 38.682 26.327 38.0537 27.8162 37.2715L31.4352 35.3745C33.264 34.4137 34.7253 33.6455 35.8558 32.8913C37.0283 32.109 37.9295 31.2865 38.5858 30.1717C39.2402 29.0605 39.5343 27.8565 39.676 26.4233C39.8125 25.032 39.8125 23.3223 39.8125 21.1698V20.8302C39.8125 18.6777 39.8125 16.968 39.676 15.5767C39.5343 14.1418 39.2385 12.9395 38.5858 11.8282C37.9295 10.7135 37.0283 9.891 35.8558 9.10875C34.727 8.3545 33.264 7.58625 31.4352 6.62725L27.8162 4.7285C26.327 3.94625 25.13 3.318 24.0993 2.891C23.0317 2.45 22.0588 2.1875 21 2.1875ZM15.3475 7.0805C16.905 6.26325 17.997 5.69275 18.9035 5.31825C19.7855 4.9525 20.4067 4.8125 21 4.8125C21.595 4.8125 22.2145 4.9525 23.0965 5.31825C24.003 5.69275 25.0933 6.26325 26.6507 7.0805L30.1507 8.918C32.0583 9.91725 33.397 10.6225 34.3997 11.291C34.8932 11.6217 35.28 11.928 35.595 12.236L29.7658 15.1497L14.8907 7.32025L15.3475 7.0805ZM12.1538 8.757L11.8492 8.918C9.94175 9.91725 8.603 10.6225 7.602 11.291C7.17488 11.5679 6.77471 11.8843 6.40675 12.236L21 19.5335L26.8748 16.5935L12.5142 9.037C12.3786 8.96547 12.2566 8.8707 12.1538 8.757ZM5.1415 14.5373C5.054 14.9117 4.98575 15.337 4.93675 15.8322C4.81425 17.0817 4.8125 18.662 4.8125 20.8967V21.1015C4.8125 23.338 4.8125 24.9182 4.93675 26.166C5.0575 27.3857 5.28675 28.175 5.677 28.84C6.0655 29.4998 6.62725 30.058 7.602 30.709C8.603 31.3775 9.94175 32.0827 11.8492 33.082L15.3492 34.9195C16.9067 35.7368 17.997 36.3073 18.9035 36.6818C19.1905 36.8008 19.4478 36.8952 19.6875 36.9705V21.8103L5.1415 14.5373ZM22.3125 36.9688C22.5522 36.8952 22.8095 36.8008 23.0965 36.6818C24.003 36.3073 25.0933 35.7368 26.6507 34.9195L30.1507 33.082C32.0583 32.081 33.397 31.3775 34.3997 30.709C35.3727 30.058 35.9345 29.4998 36.3247 28.84C36.715 28.175 36.9425 27.3875 37.0633 26.166C37.1858 24.9182 37.1875 23.338 37.1875 21.1033V20.8985C37.1875 18.662 37.1875 17.0818 37.0633 15.834C37.0238 15.3983 36.9554 14.9656 36.8585 14.539L31.0625 17.4353V22.75C31.0625 23.0981 30.9242 23.4319 30.6781 23.6781C30.4319 23.9242 30.0981 24.0625 29.75 24.0625C29.4019 24.0625 29.0681 23.9242 28.8219 23.6781C28.5758 23.4319 28.4375 23.0981 28.4375 22.75V18.7478L22.3125 21.8103V36.9688Z" fill="#FE4D4D"/>
</svg>
