<svg width="44" height="44" viewBox="0 0 44 44" fill="none" xmlns="http://www.w3.org/2000/svg">
<path d="M33 22.0001H31.5315C30.0098 22.0001 29.249 22.0001 28.6183 22.3576C27.9877 22.7133 27.5972 23.3659 26.8143 24.6694L26.7593 24.7648C26.0297 25.9803 25.6648 26.5871 25.135 26.5779C24.6033 26.5669 24.2623 25.9454 23.5785 24.7043L20.4857 19.0814C19.8495 17.9228 19.5323 17.3434 19.0227 17.3159C18.5148 17.2884 18.1353 17.8293 17.3782 18.9109L16.8593 19.6534C16.0527 20.8029 15.6512 21.3768 15.0553 21.6884C14.4577 22.0001 13.7555 22.0001 12.353 22.0001H11" stroke="#319F43" stroke-width="1.5" stroke-linecap="round"/>
<path d="M21.9993 10.0833L21.0093 11.0367C21.1376 11.1697 21.2914 11.2756 21.4615 11.3479C21.6316 11.4202 21.8145 11.4574 21.9993 11.4574C22.1842 11.4574 22.3671 11.4202 22.5372 11.3479C22.7073 11.2756 22.8611 11.1697 22.9893 11.0367L21.9993 10.0833ZM4.87052 24.5612C5.06863 24.8584 5.37464 25.0669 5.72377 25.1425C6.0729 25.2181 6.43773 25.1548 6.74104 24.9661C7.04435 24.7774 7.26231 24.4781 7.34879 24.1315C7.43526 23.7849 7.38346 23.4182 7.20435 23.1092L4.87052 24.5612ZM11.971 28.9172C11.8432 28.7896 11.6915 28.6884 11.5245 28.6194C11.3576 28.5505 11.1787 28.5151 10.9981 28.5152C10.6333 28.5156 10.2836 28.6608 10.0258 28.919C9.89825 29.0468 9.79708 29.1986 9.72811 29.3655C9.65915 29.5324 9.62374 29.7113 9.62391 29.892C9.62425 30.2568 9.76949 30.6065 10.0277 30.8642L11.971 28.9172ZM5.04102 16.7512C5.04102 11.6123 7.34552 8.42416 10.2293 7.32783C13.1168 6.22783 17.1428 7.01983 21.0093 11.0367L22.9893 9.13183C18.6077 4.576 13.4652 3.15333 9.25035 4.7575C5.02818 6.3635 2.29102 10.7947 2.29102 16.7512H5.04102ZM28.4215 35.75C31.1569 33.5922 34.4348 30.701 37.0437 27.4707C39.6232 24.2752 41.7077 20.5498 41.7077 16.7512H38.9577C38.9577 19.5947 37.359 22.7022 34.9042 25.7437C32.4787 28.7485 29.3767 31.4948 26.7183 33.5903L28.4215 35.75ZM41.7077 16.7512C41.7077 10.7928 38.9705 6.3635 34.7484 4.7575C30.5335 3.15516 25.3928 4.57416 21.0093 9.13L22.9893 11.0367C26.8559 7.02166 30.8818 6.22966 33.7694 7.32783C36.6532 8.42416 38.9577 11.6123 38.9577 16.7512H41.7077ZM15.5772 35.75C17.9147 37.5907 19.5243 38.9327 21.9993 38.9327V36.1845C20.661 36.1845 19.8287 35.5978 17.2803 33.5903L15.5772 35.75ZM26.7183 33.5903C24.17 35.5978 23.3395 36.1845 21.9993 36.1845V38.9327C24.4743 38.9327 26.084 37.5907 28.4215 35.75L26.7183 33.5903ZM7.20435 23.1092C5.83668 20.911 5.04102 18.7568 5.04102 16.7512H2.29102C2.29102 19.4645 3.35435 22.1265 4.87052 24.5612L7.20435 23.1092ZM17.2803 33.5903C15.4224 32.1351 13.6496 30.5761 11.971 28.9172L10.0277 30.8642C11.7821 32.5986 13.635 34.2287 15.5772 35.75L17.2822 33.5903H17.2803Z" fill="#319F43"/>
</svg>
