<svg width="43" height="43" viewBox="0 0 43 43" fill="none" xmlns="http://www.w3.org/2000/svg">
<g clip-path="url(#clip0_373_1592)">
<path d="M35.834 5.375C36.738 5.37471 37.6087 5.71614 38.2716 6.33085C38.9345 6.94555 39.3406 7.7881 39.4084 8.68958L39.4173 8.95833V34.0417C39.4176 34.9457 39.0762 35.8164 38.4615 36.4793C37.8468 37.1422 37.0042 37.5482 36.1027 37.616L35.834 37.625H7.16732C6.26329 37.6253 5.39255 37.2839 4.72967 36.6692C4.06679 36.0544 3.66075 35.2119 3.59294 34.3104L3.58398 34.0417V8.95833C3.5837 8.0543 3.92513 7.18357 4.53983 6.52068C5.15454 5.8578 5.99708 5.45176 6.89857 5.38396L7.16732 5.375H35.834ZM17.7005 21.5896L7.56507 31.725C7.44714 31.8434 7.31326 31.9447 7.16732 32.026V34.0417H35.834V32.026C35.688 31.9447 35.5541 31.8434 35.4362 31.725L30.3694 26.66L29.1027 27.9267L29.4736 28.2976C29.6399 28.464 29.7718 28.6616 29.8618 28.8791C29.9518 29.0965 29.9981 29.3296 29.998 29.5649C29.9979 29.8003 29.9515 30.0333 29.8613 30.2507C29.7712 30.468 29.6391 30.6655 29.4727 30.8319C29.3062 30.9982 29.1086 31.1302 28.8912 31.2202C28.6737 31.3101 28.4407 31.3564 28.2053 31.3563C27.97 31.3562 27.737 31.3098 27.5196 31.2197C27.3022 31.1295 27.1047 30.9975 26.9384 30.831L17.7023 21.5896H17.7005ZM35.834 8.95833H7.16732V27.0542L16.1167 18.1066C16.5068 17.7166 17.0272 17.4842 17.578 17.4542C18.1288 17.4241 18.6713 17.5983 19.1016 17.9435L19.2826 18.1048L26.5675 25.3915L28.7856 23.1734C29.1757 22.7834 29.696 22.5511 30.2468 22.521C30.7977 22.4909 31.3402 22.6652 31.7705 23.0104L31.9532 23.1734L35.834 27.056V8.95833ZM27.7715 12.5417C28.4843 12.5417 29.1678 12.8248 29.6718 13.3288C30.1758 13.8328 30.459 14.5164 30.459 15.2292C30.459 15.9419 30.1758 16.6255 29.6718 17.1295C29.1678 17.6335 28.4843 17.9167 27.7715 17.9167C27.0587 17.9167 26.3751 17.6335 25.8711 17.1295C25.3671 16.6255 25.084 15.9419 25.084 15.2292C25.084 14.5164 25.3671 13.8328 25.8711 13.3288C26.3751 12.8248 27.0587 12.5417 27.7715 12.5417Z" fill="#013331"/>
</g>
<defs>
<clipPath id="clip0_373_1592">
<rect width="43" height="43" fill="white"/>
</clipPath>
</defs>
</svg>
