 <svg
    width="33"
    height="38"
    viewBox="0 0 33 38"
    fill="none"
    xmlns="http://www.w3.org/2000/svg"
    >
    <path
        d="M9 21.8333H20.3333V24.1667H9V21.8333ZM9 16H26V18.3333H9V16ZM9 27.6667H16.0833V30H9V27.6667Z"
        fill="#1A85B8"
    />
    <path
        d="M30 4.07143H25.5V2.71429C25.5 1.99441 25.1839 1.30402 24.6213 0.794996C24.0587 0.285968 23.2956 0 22.5 0H10.5C9.70435 0 8.94129 0.285968 8.37868 0.794996C7.81607 1.30402 7.5 1.99441 7.5 2.71429V4.07143H3C2.20435 4.07143 1.44129 4.3574 0.878679 4.86642C0.31607 5.37545 0 6.06584 0 6.78571V35.2857C0 36.0056 0.31607 36.696 0.878679 37.205C1.44129 37.714 2.20435 38 3 38H30C30.7956 38 31.5587 37.714 32.1213 37.205C32.6839 36.696 33 36.0056 33 35.2857V6.78571C33 6.06584 32.6839 5.37545 32.1213 4.86642C31.5587 4.3574 30.7956 4.07143 30 4.07143ZM10.5 2.71429H22.5V8.14286H10.5V2.71429ZM30 35.2857H3V6.78571H7.5V10.8571H25.5V6.78571H30V35.2857Z"
        fill="#1A85B8"
    />
</svg>