<svg width="25" height="29" viewBox="0 0 25 29" fill="none" xmlns="http://www.w3.org/2000/svg">
<path d="M7 16.5833H15.6667V18.4167H7V16.5833ZM7 12H20V13.8333H7V12ZM7 21.1667H12.4167V23H7V21.1667Z" fill="#1A85B8"/>
<path d="M22.7273 3.10714H19.3182V2.07143C19.3182 1.52205 19.0787 0.995175 18.6525 0.606707C18.2263 0.218239 17.6482 0 17.0455 0H7.95455C7.35178 0 6.7737 0.218239 6.34749 0.606707C5.92127 0.995175 5.68182 1.52205 5.68182 2.07143V3.10714H2.27273C1.66996 3.10714 1.09189 3.32538 0.665666 3.71385C0.239447 4.10232 0 4.62919 0 5.17857V26.9286C0 27.4779 0.239447 28.0048 0.665666 28.3933C1.09189 28.7818 1.66996 29 2.27273 29H22.7273C23.33 29 23.9081 28.7818 24.3343 28.3933C24.7606 28.0048 25 27.4779 25 26.9286V5.17857C25 4.62919 24.7606 4.10232 24.3343 3.71385C23.9081 3.32538 23.33 3.10714 22.7273 3.10714ZM7.95455 2.07143H17.0455V6.21429H7.95455V2.07143ZM22.7273 26.9286H2.27273V5.17857H5.68182V8.28571H19.3182V5.17857H22.7273V26.9286Z" fill="#1A85B8"/>
</svg>
