<svg width="28" height="28" viewBox="0 0 28 28" fill="none" xmlns="http://www.w3.org/2000/svg">
<path d="M23.3689 24.2551C23.9056 24.7917 24.7339 23.9634 24.1972 23.4384L19.8222 19.0517C21.3569 17.3537 22.2052 15.1455 22.2022 12.8567C22.2022 7.73507 18.0372 3.57007 12.9156 3.57007C7.79391 3.57007 3.62891 7.73507 3.62891 12.8567C3.62891 17.9784 7.79391 22.1434 12.9156 22.1434C15.2256 22.1434 17.3606 21.2917 18.9939 19.8801L23.3689 24.2551ZM4.79441 12.8567C4.79441 8.37674 8.44607 4.73673 12.9144 4.73673C17.3944 4.73673 21.0344 8.37674 21.0344 12.8567C21.0344 17.3367 17.3944 20.9767 12.9144 20.9767C8.44607 20.9767 4.79441 17.3367 4.79441 12.8567Z" fill="#013331" fill-opacity="0.33"/>
</svg>
