<svg width="30" height="30" viewBox="0 0 30 32" fill="none" xmlns="http://www.w3.org/2000/svg">
<path d="M15 17.2551C14.9287 17.2551 14.8582 17.2383 14.7885 17.2055L4.07549 12.0919C3.87374 11.9959 3.74549 11.7759 3.74999 11.5303C3.75449 11.2879 3.89324 11.0679 4.09499 10.9839L14.8095 6.4391C14.871 6.4135 14.9347 6.3999 15 6.3999C15.0645 6.3999 15.129 6.4135 15.1905 6.4391L25.9042 10.9823C26.1105 11.0703 26.2455 11.2847 26.25 11.5287C26.256 11.7751 26.1277 11.9959 25.9245 12.0919L15.2107 17.2079C15.144 17.2391 15.072 17.2551 15 17.2551ZM5.71949 11.5743L14.9737 15.9919L24.2805 11.5743L15 7.6391L5.71949 11.5743Z" fill="#111111" fill-opacity="0.59"/>
<path d="M4.07584 16.3918C3.80509 16.2614 3.67834 15.9086 3.79384 15.6054C3.87859 15.3854 4.07284 15.2422 4.28809 15.2422C4.36084 15.2422 4.43134 15.259 4.49959 15.2918L14.9748 20.291L25.5026 15.2918C25.5716 15.2582 25.6421 15.2422 25.7148 15.2422C25.9293 15.2422 26.1228 15.3838 26.2068 15.6054C26.3231 15.9086 26.1963 16.2614 25.9248 16.3918L15.0003 21.6062L4.07584 16.3918Z" fill="#111111" fill-opacity="0.59"/>
<path d="M4.07565 20.3838C3.80415 20.2526 3.6774 19.9006 3.79365 19.599C3.8784 19.379 4.07265 19.2358 4.2879 19.2358C4.36065 19.2358 4.43115 19.2526 4.4994 19.2846L14.9746 24.2846L25.5024 19.2846C25.5699 19.2534 25.6419 19.2358 25.7146 19.2358C25.9291 19.2358 26.1226 19.379 26.2066 19.599C26.3229 19.9014 26.1961 20.2542 25.9254 20.3838L15.0001 25.5998L4.07565 20.3838Z" fill="#111111" fill-opacity="0.59"/>
</svg>
