<svg width="22" height="28" viewBox="0 0 22 28" fill="none" xmlns="http://www.w3.org/2000/svg">
<path d="M11 15.875C10.0729 15.875 9.16662 15.6001 8.39577 15.085C7.62491 14.5699 7.0241 13.8379 6.66932 12.9813C6.31453 12.1248 6.2217 11.1823 6.40257 10.273C6.58344 9.36373 7.02988 8.5285 7.68544 7.87294C8.341 7.21738 9.17623 6.77094 10.0855 6.59007C10.9948 6.4092 11.9373 6.50203 12.7938 6.85682C13.6504 7.2116 14.3824 7.81241 14.8975 8.58327C15.4126 9.35412 15.6875 10.2604 15.6875 11.1875C15.686 12.4302 15.1917 13.6217 14.3129 14.5004C13.4342 15.3792 12.2427 15.8735 11 15.875ZM11 8.375C10.4437 8.375 9.89997 8.53995 9.43746 8.84899C8.97495 9.15804 8.61446 9.59729 8.40159 10.1112C8.18872 10.6251 8.13302 11.1906 8.24154 11.7362C8.35006 12.2818 8.61793 12.7829 9.01126 13.1762C9.4046 13.5696 9.90574 13.8374 10.4513 13.946C10.9969 14.0545 11.5624 13.9988 12.0763 13.7859C12.5902 13.573 13.0295 13.2126 13.3385 12.75C13.6476 12.2875 13.8125 11.7438 13.8125 11.1875C13.8118 10.4418 13.5152 9.72687 12.9879 9.19959C12.4606 8.6723 11.7457 8.37575 11 8.375Z" fill="#013331"/>
<path d="M11 27.125L3.09126 17.7978C2.98137 17.6578 2.87261 17.5168 2.76501 17.375C1.41406 15.5954 0.684236 13.4218 0.687511 11.1875C0.687511 8.45246 1.774 5.82943 3.70797 3.89546C5.64194 1.96149 8.26497 0.875 11 0.875C13.7351 0.875 16.3581 1.96149 18.292 3.89546C20.226 5.82943 21.3125 8.45246 21.3125 11.1875C21.3158 13.4208 20.5863 15.5934 19.2359 17.3722L19.235 17.375C19.235 17.375 18.9538 17.7444 18.9116 17.7941L11 27.125ZM4.26126 16.2453C4.26314 16.2453 4.48064 16.5341 4.53032 16.5959L11 24.2263L17.4781 16.5856C17.5194 16.5341 17.7388 16.2434 17.7397 16.2425C18.8433 14.7885 19.4397 13.0128 19.4375 11.1875C19.4375 8.94974 18.5486 6.80362 16.9662 5.22129C15.3839 3.63895 13.2378 2.75 11 2.75C8.76225 2.75 6.61614 3.63895 5.0338 5.22129C3.45146 6.80362 2.56251 8.94974 2.56251 11.1875C2.56054 13.014 3.15668 14.7907 4.26126 16.2453Z" fill="#013331"/>
</svg>
