<svg width="32" height="32" viewBox="0 0 32 32" fill="none" xmlns="http://www.w3.org/2000/svg">
<g clip-path="url(#clip0_121_7071)">
<path d="M10 18H18V20H10V18ZM10 13H22V15H10V13ZM10 23H15V25H10V23Z" fill="#111111" fill-opacity="0.59"/>
<path d="M30.4909 5.00429H26.6673V4.00286C26.6673 3.47167 26.3987 2.96223 25.9207 2.58662C25.4426 2.21101 24.7942 2 24.1182 2H13.9218C13.2458 2 12.5974 2.21101 12.1193 2.58662C11.6413 2.96223 11.3727 3.47167 11.3727 4.00286V5.00429H7.54909C6.87303 5.00429 6.22466 5.2153 5.74661 5.59091C5.26856 5.96652 5 6.47595 5 7.00714V28.0371C5 28.5683 5.26856 29.0778 5.74661 29.4534C6.22466 29.829 6.87303 30.04 7.54909 30.04H30.4909C31.167 30.04 31.8153 29.829 32.2934 29.4534C32.7714 29.0778 33.04 28.5683 33.04 28.0371V7.00714C33.04 6.47595 32.7714 5.96652 32.2934 5.59091C31.8153 5.2153 31.167 5.00429 30.4909 5.00429ZM13.9218 4.00286H24.1182V8.00857H13.9218V4.00286ZM30.4909 28.0371H7.54909V7.00714H11.3727V10.0114H26.6673V7.00714H30.4909V28.0371Z" fill="#111111" fill-opacity="0.59"/>
</g>
<defs>
<clipPath id="clip0_121_7071">
<rect width="32" height="32" fill="white"/>
</clipPath>
</defs>
</svg>
