<svg width="29" height="29" viewBox="0 0 29 29" fill="none" xmlns="http://www.w3.org/2000/svg">
<g clip-path="url(#clip0_128_7267)">
<path d="M16.6847 2.41675C17.1751 2.41688 17.653 2.5713 18.0508 2.85815C18.4486 3.14501 18.746 3.54974 18.901 4.01503L19.5354 5.92175H23.3675C23.6774 5.92175 23.9746 6.04484 24.1937 6.26395C24.4128 6.48305 24.5359 6.78022 24.5359 7.09008C24.5359 7.39994 24.4128 7.69711 24.1937 7.91622C23.9746 8.13532 23.6774 8.25842 23.3675 8.25842L23.364 8.34137L22.3511 22.5284C22.2879 23.4124 21.8921 24.2396 21.2435 24.8436C20.5949 25.4475 19.7417 25.7833 18.8554 25.7834H9.1863C8.30007 25.7833 7.44677 25.4475 6.79818 24.8436C6.14959 24.2396 5.75386 23.4124 5.69064 22.5284L4.6777 8.3402C4.67558 8.31299 4.67441 8.28571 4.67419 8.25842C4.36433 8.25842 4.06716 8.13532 3.84806 7.91622C3.62895 7.69711 3.50586 7.39994 3.50586 7.09008C3.50586 6.78022 3.62895 6.48305 3.84806 6.26395C4.06716 6.04484 4.36433 5.92175 4.67419 5.92175H8.50633L9.14073 4.01503C9.29577 3.54955 9.59338 3.14468 9.99139 2.85781C10.3894 2.57094 10.8676 2.41663 11.3582 2.41675H16.6847ZM21.0274 8.25842H7.01436L8.02147 22.3614C8.04244 22.656 8.17426 22.9318 8.39038 23.1332C8.6065 23.3346 8.89089 23.4466 9.1863 23.4467H18.8554C19.1508 23.4466 19.4352 23.3346 19.6513 23.1332C19.8675 22.9318 19.9993 22.656 20.0203 22.3614L21.0274 8.25842ZM11.6842 11.7634C11.9704 11.7635 12.2466 11.8685 12.4604 12.0587C12.6742 12.2488 12.8109 12.5109 12.8443 12.7951L12.8525 12.9317V18.7734C12.8522 19.0712 12.7382 19.3576 12.5337 19.5742C12.3293 19.7907 12.0499 19.921 11.7527 19.9384C11.4554 19.9559 11.1627 19.8592 10.9343 19.6681C10.706 19.4769 10.5592 19.2058 10.524 18.9101L10.5159 18.7734V12.9317C10.5159 12.6219 10.639 12.3247 10.8581 12.1056C11.0772 11.8865 11.3743 11.7634 11.6842 11.7634ZM16.3575 11.7634C16.6674 11.7634 16.9646 11.8865 17.1837 12.1056C17.4028 12.3247 17.5259 12.6219 17.5259 12.9317V18.7734C17.5259 19.0833 17.4028 19.3804 17.1837 19.5996C16.9646 19.8187 16.6674 19.9417 16.3575 19.9417C16.0477 19.9417 15.7505 19.8187 15.5314 19.5996C15.3123 19.3804 15.1892 19.0833 15.1892 18.7734V12.9317C15.1892 12.6219 15.3123 12.3247 15.5314 12.1056C15.7505 11.8865 16.0477 11.7634 16.3575 11.7634ZM16.6847 4.75341H11.3571L10.968 5.92175H17.0737L16.6847 4.75341Z" fill="#E33629"/>
</g>
<defs>
<clipPath id="clip0_128_7267">
<rect width="28.04" height="28.04" fill="white" transform="translate(0 0.0800781)"/>
</clipPath>
</defs>
</svg>
