<svg width="30" height="33" viewBox="0 0 30 33" fill="none" xmlns="http://www.w3.org/2000/svg">
<path d="M21.6655 3.53076C18.9038 3.53076 16.4858 4.78297 14.9786 6.89961C13.4714 4.78297 11.0534 3.53076 8.29173 3.53076C6.09338 3.53337 3.98579 4.45534 2.43133 6.09439C0.876864 7.73344 0.0024778 9.95572 0 12.2737C0 22.1447 13.8806 30.1346 14.4717 30.4646C14.6275 30.553 14.8017 30.5992 14.9786 30.5992C15.1555 30.5992 15.3297 30.553 15.4855 30.4646C16.0766 30.1346 29.9572 22.1447 29.9572 12.2737C29.9547 9.95572 29.0803 7.73344 27.5259 6.09439C25.9714 4.45534 23.8638 3.53337 21.6655 3.53076ZM14.9786 28.1802C12.5366 26.6798 2.1398 19.8448 2.1398 12.2737C2.14192 10.554 2.79075 8.90538 3.944 7.68938C5.09725 6.47337 6.66079 5.78924 8.29173 5.787C10.8929 5.787 13.0769 7.24791 13.9889 9.5944C14.0696 9.80131 14.2067 9.97828 14.3829 10.1028C14.5591 10.2274 14.7665 10.2939 14.9786 10.2939C15.1907 10.2939 15.3981 10.2274 15.5743 10.1028C15.7505 9.97828 15.8877 9.80131 15.9683 9.5944C16.8803 7.24368 19.0643 5.787 21.6655 5.787C23.2964 5.78924 24.86 6.47337 26.0132 7.68938C27.1665 8.90538 27.8153 10.554 27.8174 12.2737C27.8174 19.8335 17.418 26.6784 14.9786 28.1802Z" fill="#111111" fill-opacity="0.59"/>
</svg>
