<svg width="29" height="29" viewBox="0 0 29 29" fill="none" xmlns="http://www.w3.org/2000/svg">
<path d="M12.2684 23.6586C12.2684 23.891 12.176 24.1139 12.0117 24.2782C11.8474 24.4426 11.6245 24.5349 11.3921 24.5349H5.25836C4.79357 24.5349 4.34781 24.3502 4.01915 24.0216C3.6905 23.6929 3.50586 23.2472 3.50586 22.7824V5.25738C3.50586 4.79259 3.6905 4.34684 4.01915 4.01818C4.34781 3.68952 4.79357 3.50488 5.25836 3.50488H11.3921C11.6245 3.50488 11.8474 3.5972 12.0117 3.76153C12.176 3.92586 12.2684 4.14874 12.2684 4.38113C12.2684 4.61353 12.176 4.83641 12.0117 5.00074C11.8474 5.16506 11.6245 5.25738 11.3921 5.25738H5.25836V22.7824H11.3921C11.6245 22.7824 11.8474 22.8747 12.0117 23.039C12.176 23.2034 12.2684 23.4262 12.2684 23.6586ZM24.2796 13.3999L19.8983 9.01869C19.7339 8.85427 19.5109 8.7619 19.2784 8.7619C19.0458 8.7619 18.8228 8.85427 18.6584 9.01869C18.494 9.18311 18.4016 9.40611 18.4016 9.63863C18.4016 9.87116 18.494 10.0942 18.6584 10.2586L21.5446 13.1436H11.3921C11.1597 13.1436 10.9368 13.236 10.7725 13.4003C10.6082 13.5646 10.5159 13.7875 10.5159 14.0199C10.5159 14.2523 10.6082 14.4752 10.7725 14.6395C10.9368 14.8038 11.1597 14.8961 11.3921 14.8961H21.5446L18.6584 17.7812C18.494 17.9456 18.4016 18.1686 18.4016 18.4011C18.4016 18.6337 18.494 18.8567 18.6584 19.0211C18.8228 19.1855 19.0458 19.2779 19.2784 19.2779C19.5109 19.2779 19.7339 19.1855 19.8983 19.0211L24.2796 14.6398C24.361 14.5585 24.4257 14.4618 24.4698 14.3554C24.5139 14.2491 24.5365 14.135 24.5365 14.0199C24.5365 13.9047 24.5139 13.7907 24.4698 13.6843C24.4257 13.578 24.361 13.4813 24.2796 13.3999Z" fill="#111111" fill-opacity="0.59"/>
</svg>
