<svg width="30" height="30" viewBox="0 0 30 30" fill="none" xmlns="http://www.w3.org/2000/svg">
<path d="M14.3929 15.895C14.3929 16.2934 14.5511 16.6755 14.8328 16.9572C15.1145 17.2389 15.4966 17.3971 15.895 17.3971C16.2934 17.3971 16.6755 17.2389 16.9572 16.9572C17.2389 16.6755 17.3971 16.2934 17.3971 15.895C17.3971 15.4966 17.2389 15.1145 16.9572 14.8328C16.6755 14.5511 16.2934 14.3929 15.895 14.3929C15.4966 14.3929 15.1145 14.5511 14.8328 14.8328C14.5511 15.1145 14.3929 15.4966 14.3929 15.895ZM20.6517 15.895C20.6517 16.2934 20.81 16.6755 21.0917 16.9572C21.3734 17.2389 21.7555 17.3971 22.1539 17.3971C22.5522 17.3971 22.9343 17.2389 23.216 16.9572C23.4977 16.6755 23.656 16.2934 23.656 15.895C23.656 15.4966 23.4977 15.1145 23.216 14.8328C22.9343 14.5511 22.5522 14.3929 22.1539 14.3929C21.7555 14.3929 21.3734 14.5511 21.0917 14.8328C20.81 15.1145 20.6517 15.4966 20.6517 15.895ZM8.13403 15.895C8.13403 16.2934 8.29229 16.6755 8.57399 16.9572C8.85569 17.2389 9.23776 17.3971 9.63615 17.3971C10.0345 17.3971 10.4166 17.2389 10.6983 16.9572C10.98 16.6755 11.1383 16.2934 11.1383 15.895C11.1383 15.4966 10.98 15.1145 10.6983 14.8328C10.4166 14.5511 10.0345 14.3929 9.63615 14.3929C9.23776 14.3929 8.85569 14.5511 8.57399 14.8328C8.29229 15.1145 8.13403 15.4966 8.13403 15.895ZM28.8258 10.4622C28.1185 8.78173 27.1046 7.27333 25.8122 5.97773C24.5287 4.68963 23.0052 3.66575 21.3277 2.96405C19.6065 2.24115 17.7789 1.875 15.895 1.875H15.8324C13.936 1.88439 12.099 2.25992 10.3716 2.99848C8.70846 3.70737 7.19915 4.73307 5.92778 6.01841C4.64785 7.31088 3.6433 8.81302 2.94857 10.4873C2.2288 12.221 1.86579 14.0643 1.87518 15.9607C1.8858 18.134 2.39996 20.2753 3.3773 22.2165V26.9733C3.3773 27.3551 3.52897 27.7213 3.79893 27.9912C4.0689 28.2612 4.43505 28.4129 4.81684 28.4129H9.57669C11.5179 29.3902 13.6591 29.9044 15.8324 29.915H15.8981C17.7727 29.915 19.5909 29.552 21.3026 28.8416C22.9717 28.1483 24.4896 27.1363 25.7715 25.8623C27.0639 24.5824 28.081 23.0865 28.7914 21.4185C29.5299 19.691 29.9054 17.854 29.9148 15.9576C29.9242 14.0517 29.5549 12.2022 28.8258 10.4622ZM24.0972 24.1693C21.9035 26.3412 18.9931 27.5366 15.895 27.5366H15.8418C13.9548 27.5272 12.0802 27.0578 10.4248 26.1753L10.1619 26.0345H5.75567V21.6282L5.61484 21.3653C4.73234 19.7098 4.26293 17.8353 4.25354 15.9482C4.24102 12.8281 5.43333 9.89895 7.6208 7.69267C9.80514 5.4864 12.7249 4.26591 15.8449 4.25339H15.8981C17.4628 4.25339 18.9806 4.55695 20.4108 5.15781C21.8065 5.74302 23.0583 6.58484 24.1348 7.66138C25.2082 8.73479 26.0531 9.9897 26.6383 11.3854C27.2454 12.8313 27.549 14.3647 27.5427 15.9482C27.5239 19.0651 26.3003 21.9849 24.0972 24.1693Z" fill="#111111" fill-opacity="0.59"/>
</svg>
