<svg width="29" height="23" viewBox="0 0 29 23" fill="none" xmlns="http://www.w3.org/2000/svg">
<path d="M26.0371 0H2.00286C1.47167 0 0.962232 0.242321 0.586623 0.673654C0.211015 1.10499 0 1.69 0 2.3V20.7C0 21.31 0.211015 21.895 0.586623 22.3263C0.962232 22.7577 1.47167 23 2.00286 23H26.0371C26.5683 23 27.0778 22.7577 27.4534 22.3263C27.829 21.895 28.04 21.31 28.04 20.7V2.3C28.04 1.69 27.829 1.10499 27.4534 0.673654C27.0778 0.242321 26.5683 0 26.0371 0ZM26.0371 2.3V5.75H2.00286V2.3H26.0371ZM26.0371 20.7H2.00286V8.05H26.0371V20.7ZM24.0343 17.25C24.0343 17.555 23.9288 17.8475 23.741 18.0632C23.5532 18.2788 23.2985 18.4 23.0329 18.4H19.0271C18.7615 18.4 18.5068 18.2788 18.319 18.0632C18.1312 17.8475 18.0257 17.555 18.0257 17.25C18.0257 16.945 18.1312 16.6525 18.319 16.4368C18.5068 16.2212 18.7615 16.1 19.0271 16.1H23.0329C23.2985 16.1 23.5532 16.2212 23.741 16.4368C23.9288 16.6525 24.0343 16.945 24.0343 17.25ZM16.0229 17.25C16.0229 17.555 15.9174 17.8475 15.7295 18.0632C15.5417 18.2788 15.287 18.4 15.0214 18.4H13.0186C12.753 18.4 12.4983 18.2788 12.3105 18.0632C12.1227 17.8475 12.0171 17.555 12.0171 17.25C12.0171 16.945 12.1227 16.6525 12.3105 16.4368C12.4983 16.2212 12.753 16.1 13.0186 16.1H15.0214C15.287 16.1 15.5417 16.2212 15.7295 16.4368C15.9174 16.6525 16.0229 16.945 16.0229 17.25Z" fill="#111111" fill-opacity="0.59"/>
</svg>
