<svg width="29" height="29" viewBox="0 0 29 29" fill="none" xmlns="http://www.w3.org/2000/svg">
<path d="M16.4488 1.75244C16.6343 1.75245 16.815 1.81133 16.9649 1.92062C17.1148 2.0299 17.2262 2.18394 17.283 2.36056L18.2468 5.35558C18.6517 5.55361 19.039 5.77618 19.4087 6.02679L22.4861 5.36434C22.6676 5.3256 22.8566 5.34546 23.0261 5.42104C23.1955 5.49663 23.3366 5.62405 23.429 5.78494L25.8579 9.98919C25.9507 10.15 25.99 10.3361 25.9701 10.5207C25.9503 10.7052 25.8724 10.8787 25.7475 11.0162L23.6358 13.347C23.6665 13.7939 23.6665 14.2425 23.6358 14.6894L25.7475 17.0237C25.8724 17.1611 25.9503 17.3346 25.9701 17.5192C25.99 17.7038 25.9507 17.8899 25.8579 18.0507L23.429 22.2567C23.3363 22.4173 23.1952 22.5443 23.0257 22.6196C22.8563 22.6948 22.6674 22.7144 22.4861 22.6755L19.4087 22.0131C19.0407 22.2619 18.6517 22.4863 18.2486 22.6843L17.283 25.6793C17.2262 25.8559 17.1148 26.01 16.9649 26.1193C16.815 26.2285 16.6343 26.2874 16.4488 26.2874H11.5908C11.4053 26.2874 11.2246 26.2285 11.0747 26.1193C10.9248 26.01 10.8134 25.8559 10.7567 25.6793L9.79453 22.6861C9.39079 22.4886 9.00137 22.2632 8.62912 22.0113L5.55348 22.6755C5.37204 22.7143 5.18298 22.6944 5.01354 22.6188C4.8441 22.5433 4.70302 22.4158 4.61064 22.2549L2.18167 18.0507C2.08892 17.8899 2.04963 17.7038 2.06947 17.5192C2.08932 17.3346 2.16726 17.1611 2.29208 17.0237L4.40384 14.6894C4.37325 14.2436 4.37325 13.7963 4.40384 13.3505L2.29208 11.0162C2.16726 10.8787 2.08932 10.7052 2.06947 10.5207C2.04963 10.3361 2.08892 10.15 2.18167 9.98919L4.61064 5.78319C4.70328 5.62262 4.84446 5.49556 5.01388 5.4203C5.1833 5.34504 5.37222 5.32545 5.55348 5.36434L8.62912 6.02854C9.00065 5.77793 9.3897 5.55186 9.79453 5.35383L10.7584 2.36056C10.815 2.18451 10.9258 2.03088 11.075 1.92165C11.2242 1.81241 11.4042 1.75319 11.5891 1.75244H16.447H16.4488ZM15.8074 3.50494H12.2323L11.2368 6.60161L10.5656 6.92933C10.2357 7.0908 9.91714 7.27465 9.61227 7.47961L8.99189 7.90021L5.80935 7.21323L4.0218 10.3117L6.20366 12.7266L6.15108 13.4697C6.1259 13.8361 6.1259 14.2038 6.15108 14.5702L6.20366 15.3133L4.01829 17.7282L5.80759 20.8267L8.99013 20.1414L9.61052 20.5603C9.91538 20.7652 10.2339 20.9491 10.5639 21.1106L11.2351 21.4383L12.2323 24.5349H15.8109L16.8098 21.4365L17.4792 21.1106C17.8088 20.9495 18.1268 20.7656 18.4309 20.5603L19.0495 20.1414L22.2338 20.8267L24.0213 17.7282L21.8377 15.3133L21.8903 14.5702C21.9155 14.2032 21.9155 13.8349 21.8903 13.4679L21.8377 12.7248L24.0231 10.3117L22.2338 7.21323L19.0495 7.89671L18.4309 7.47961C18.1269 7.27424 17.8089 7.09037 17.4792 6.92933L16.8098 6.60336L15.8091 3.50494H15.8074ZM14.0198 8.76244C15.4142 8.76244 16.7515 9.31635 17.7374 10.3023C18.7234 11.2883 19.2773 12.6256 19.2773 14.0199C19.2773 15.4143 18.7234 16.7516 17.7374 17.7376C16.7515 18.7235 15.4142 19.2774 14.0198 19.2774C12.6254 19.2774 11.2882 18.7235 10.3022 17.7376C9.31622 16.7516 8.76231 15.4143 8.76231 14.0199C8.76231 12.6256 9.31622 11.2883 10.3022 10.3023C11.2882 9.31635 12.6254 8.76244 14.0198 8.76244ZM14.0198 10.5149C13.0902 10.5149 12.1987 10.8842 11.5414 11.5415C10.8841 12.1988 10.5148 13.0904 10.5148 14.0199C10.5148 14.9495 10.8841 15.841 11.5414 16.4983C12.1987 17.1557 13.0902 17.5249 14.0198 17.5249C14.9494 17.5249 15.8409 17.1557 16.4982 16.4983C17.1555 15.841 17.5248 14.9495 17.5248 14.0199C17.5248 13.0904 17.1555 12.1988 16.4982 11.5415C15.8409 10.8842 14.9494 10.5149 14.0198 10.5149Z" fill="#111111" fill-opacity="0.59"/>
</svg>
