<svg width="29" height="29" viewBox="0 0 29 29" fill="none" xmlns="http://www.w3.org/2000/svg">
<path d="M23.3675 7.01993H4.67419V4.67993H23.3675V7.01993ZM18.332 16.3799H16.3575V18.3572C15.6215 19.4687 15.1892 20.7908 15.1892 22.2299C15.1892 22.6277 15.2359 23.0138 15.2943 23.3999H4.67419V16.3799H3.50586V14.0399L4.67419 8.18993H23.3675L24.5359 14.0399V15.6194C23.7998 15.362 23.017 15.2099 22.1992 15.2099C20.7621 15.2099 19.4419 15.6428 18.332 16.3799ZM14.0209 16.3799H7.01086V21.0599H14.0209V16.3799ZM22.1525 14.0399L21.4515 10.5299H6.59026L5.88926 14.0399H22.1525ZM23.3675 21.0599V17.5499H21.0309V21.0599H17.5259V23.3999H21.0309V26.9099H23.3675V23.3999H26.8725V21.0599H23.3675Z" fill="#111111" fill-opacity="0.59"/>
</svg>
