<svg width="84" height="84" viewBox="0 0 84 84" fill="none" xmlns="http://www.w3.org/2000/svg">
<path fill-rule="evenodd" clip-rule="evenodd" d="M58.4852 4.81956C58.4688 4.44125 58.3707 4.07098 58.1977 3.73414C58.0247 3.39731 57.7809 3.10188 57.483 2.86814C57.1851 2.63441 56.8402 2.46789 56.4718 2.38001C56.1035 2.29214 55.7205 2.28499 55.3492 2.35906C53.5992 2.70906 47.8872 4.13006 43.3792 8.63806C41.0762 10.9411 39.8022 13.8461 39.1092 16.4921C38.7771 17.7805 38.55 19.0939 38.4302 20.4191C38.1472 20.2966 37.8637 20.1753 37.5797 20.0551C35.1542 19.0191 32.0147 17.8151 28.4447 17.8151C24.6227 17.8151 19.1977 19.3691 14.7177 23.7651C10.1747 28.2241 6.8252 35.3781 6.8252 46.1651C6.8252 52.2271 9.85619 61.0401 13.9407 68.1976C16.0057 71.8131 18.4382 75.1801 21.0632 77.6616C23.6147 80.0695 26.7227 81.9946 30.1107 81.9071C32.6307 81.8966 35.1857 80.9061 37.1702 80.1361L37.3452 80.0661C39.6342 79.1805 41.2652 78.5821 42.6337 78.5821C43.9427 78.5821 45.5877 79.1806 47.9117 80.0731L48.0832 80.1361C50.0992 80.9096 52.6997 81.9071 55.1952 81.9071C57.0817 81.9071 59.2622 80.8991 61.1732 79.7126C63.4699 78.2513 65.5807 76.5166 67.4592 74.5466C71.4387 70.4096 75.2187 64.4981 75.0717 58.1701C75.0604 57.6841 74.9143 57.2108 74.6498 56.8029C74.3854 56.395 74.0128 56.0686 73.5737 55.8601C71.7238 54.9189 70.0722 53.6309 68.7087 52.0661C67.0532 50.1656 65.8317 47.8241 65.7547 45.1081C65.6708 41.6808 66.4955 38.2924 68.1452 35.2871C69.6222 32.5921 71.2952 31.0521 72.0722 30.6426C72.4043 30.4684 72.6952 30.225 72.9254 29.929C73.1555 29.6329 73.3195 29.2909 73.4064 28.9261C73.4933 28.5613 73.5011 28.1822 73.4291 27.8141C73.3571 27.4461 73.2071 27.0977 72.9892 26.7926C71.7922 25.1126 69.5172 22.9006 66.8362 21.1191C64.1867 19.3551 60.7322 17.7416 57.1972 17.8116C56.5777 17.8256 55.9722 17.8711 55.3772 17.9411C56.6722 16.0161 57.4282 13.6291 57.8692 11.5361C58.338 9.32921 58.5459 7.07493 58.4887 4.81956H58.4852ZM47.0927 12.3481C48.9862 10.4546 51.2122 9.25756 53.0567 8.51906C52.9739 9.16828 52.8653 9.81396 52.7312 10.4546C52.2727 12.6316 51.5517 14.4516 50.6662 15.4876C48.9862 17.4441 46.7322 19.5791 43.7082 20.4226C43.8062 19.5931 43.9602 18.7076 44.1912 17.8186C44.7337 15.7361 45.6612 13.7831 47.0927 12.3481ZM57.3022 23.0581C59.2797 23.0231 61.6492 23.9716 63.9312 25.4906C65.1352 26.2886 66.1992 27.1706 67.0462 27.9826C65.7967 29.2356 64.5682 30.8876 63.5392 32.7636C61.4421 36.5874 60.3962 40.8989 60.5082 45.2586C60.6272 49.5286 62.5522 52.9936 64.7502 55.5136C66.3602 57.3581 68.1802 58.7826 69.7552 59.7486C69.3107 63.5811 66.8712 67.5886 63.6757 70.9066C62.0989 72.5626 60.3279 74.0222 58.4012 75.2536C56.6232 76.3596 55.5172 76.6571 55.1952 76.6571C53.7952 76.6571 52.0872 76.048 49.7912 75.1695L49.5112 75.0646C47.5372 74.3051 45.0102 73.3355 42.6337 73.3355C40.1837 73.3355 37.6707 74.3121 35.7037 75.0751L35.4517 75.1731C33.1837 76.0481 31.5072 76.6571 30.0722 76.6571H29.9917C28.6757 76.6991 26.8627 75.9151 24.6717 73.8466C22.5437 71.8341 20.4122 68.9361 18.5012 65.5936C14.6372 58.8246 12.0752 50.9391 12.0752 46.1686C12.0752 36.5191 15.0327 30.8106 18.3927 27.5136C21.8157 24.1536 25.8862 23.0616 28.4482 23.0616C30.8807 23.0616 33.1837 23.8841 35.5182 24.8816L36.4632 25.2911C37.2962 25.6516 38.1607 26.0261 38.9447 26.3236C40.0367 26.7331 41.3212 27.1251 42.6337 27.1251C43.9462 27.1251 45.2447 26.7576 46.3787 26.3551C47.2222 26.0576 48.1462 25.6761 49.0387 25.3086L49.9207 24.9446C52.3462 23.9576 54.7577 23.1141 57.3022 23.0616V23.0581Z" fill="#FCFCFC"/>
</svg>
