<svg width="84" height="84" viewBox="0 0 84 84" fill="none" xmlns="http://www.w3.org/2000/svg">
<path d="M29.2622 2.76277C20.8693 5.67434 13.6312 11.2006 8.61125 18.5298C3.59125 25.8591 1.05388 34.605 1.37183 43.4829C1.68979 52.3607 4.84632 60.9027 10.3778 67.854C15.9092 74.8054 23.5241 79.7997 32.1037 82.1034C39.0595 83.8982 46.3471 83.977 53.34 82.3331C59.6749 80.9101 65.5317 77.8664 70.3369 73.5C75.338 68.8166 78.9681 62.8587 80.8369 56.2668C82.8674 49.0983 83.2288 41.5599 81.8934 34.23H42.8334V50.4328H65.4544C65.0023 53.017 64.0335 55.4835 62.6059 57.6845C61.1784 59.8856 59.3214 61.7761 57.1462 63.2428C54.3843 65.0707 51.2704 66.3002 48.0047 66.8521C44.7296 67.4613 41.3703 67.4613 38.0953 66.8521C34.7757 66.1666 31.6354 64.7965 28.875 62.8293C24.4397 59.6898 21.1094 55.2295 19.3594 50.085C17.5802 44.844 17.5802 39.1625 19.3594 33.9215C20.6051 30.2479 22.6645 26.9032 25.3837 24.1368C28.4956 20.913 32.4354 18.6086 36.7707 17.4764C41.106 16.3442 45.6695 16.4281 49.9603 17.7187C53.3124 18.7472 56.3777 20.545 58.9116 22.9687C61.4622 20.4312 64.0084 17.8871 66.5503 15.3365C67.8628 13.965 69.2934 12.659 70.5862 11.2546C66.7179 7.65523 62.1774 4.85427 57.225 3.01214C48.2062 -0.26261 38.338 -0.350616 29.2622 2.76277Z" fill="white"/>
<path d="M29.262 2.76278C38.337 -0.352716 48.2052 -0.267027 57.2248 3.0056C62.1781 4.86023 66.7165 7.67469 70.5795 11.2875C69.267 12.6918 67.8823 14.0043 66.5435 15.3693C63.9973 17.9112 61.4532 20.4443 58.9113 22.9687C56.3775 20.545 53.3122 18.7472 49.9601 17.7187C45.6707 16.4236 41.1074 16.3349 36.7709 17.4624C32.4344 18.5899 28.4923 20.8901 25.377 24.1106C22.6577 26.8769 20.5983 30.2217 19.3526 33.8953L5.74854 23.3625C10.618 13.7062 19.0491 6.31982 29.262 2.76278Z" fill="#E33629"/>
<path d="M2.13941 33.7969C2.87008 30.1729 4.08405 26.6634 5.74879 23.3625L19.3529 33.9216C17.5737 39.1625 17.5737 44.8441 19.3529 50.085C14.8204 53.5851 10.2857 57.1026 5.74879 60.6376C1.58259 52.3446 0.311973 42.8958 2.13941 33.7969Z" fill="#F8BD00"/>
<path d="M42.8335 34.2234H81.8935C83.2289 41.5533 82.8675 49.0917 80.8369 56.2603C78.9682 62.8522 75.3381 68.81 70.3369 73.4934C65.9466 70.0678 61.5366 66.6684 57.1463 63.2428C59.3229 61.7746 61.1807 59.8821 62.6083 57.6786C64.0359 55.4752 65.004 53.0062 65.4544 50.4196H42.8335C42.8269 45.0253 42.8335 39.6243 42.8335 34.2234Z" fill="#587DBD"/>
<path d="M5.74219 60.6375C10.2791 57.1375 14.8137 53.62 19.3462 50.085C21.0998 55.2313 24.4348 59.6918 28.875 62.8293C31.644 64.7874 34.7911 66.1463 38.115 66.8193C41.39 67.4285 44.7493 67.4285 48.0244 66.8193C51.2901 66.2673 54.404 65.0378 57.1659 63.21C61.5563 66.6356 65.9662 70.035 70.3566 73.4606C65.5521 77.8294 59.6953 80.8754 53.3597 82.3003C46.3667 83.9442 39.0792 83.8654 32.1234 82.0706C26.6221 80.6017 21.4835 78.0123 17.0297 74.4646C12.316 70.7215 8.46585 66.0051 5.74219 60.6375Z" fill="#319F43"/>
</svg>
