<svg width="49" height="48" viewBox="0 0 49 48" fill="none" xmlns="http://www.w3.org/2000/svg">
<g filter="url(#filter0_d_0_1)">
<ellipse cx="24.5" cy="20" rx="20.5" ry="20" fill="#1877F2"/>
</g>
<path d="M28.5833 12.3542C28.5833 12.2271 28.535 12.1053 28.4491 12.0154C28.3631 11.9255 28.2466 11.8751 28.125 11.8751H25.8333C24.6794 11.815 23.5495 12.2348 22.6907 13.0429C21.8319 13.8509 21.314 14.9815 21.25 16.1876V18.7751H18.9583C18.8368 18.7751 18.7202 18.8255 18.6342 18.9154C18.5483 19.0053 18.5 19.1271 18.5 19.2542V21.7459C18.5 21.873 18.5483 21.9948 18.6342 22.0847C18.7202 22.1746 18.8368 22.2251 18.9583 22.2251H21.25V28.6459C21.25 28.773 21.2983 28.8948 21.3842 28.9847C21.4702 29.0746 21.5868 29.125 21.7083 29.125H24.4583C24.5799 29.125 24.6965 29.0746 24.7824 28.9847C24.8684 28.8948 24.9167 28.773 24.9167 28.6459V22.2251H27.3183C27.4203 22.2266 27.5198 22.1925 27.6011 22.1283C27.6825 22.0641 27.741 21.9734 27.7675 21.8705L28.4275 19.3788C28.4457 19.308 28.4482 19.2338 28.4347 19.1618C28.4211 19.0899 28.392 19.0221 28.3495 18.9638C28.307 18.9055 28.2523 18.8581 28.1895 18.8254C28.1267 18.7927 28.0576 18.7755 27.9875 18.7751H24.9167V16.1876C24.9395 15.9503 25.046 15.7305 25.2155 15.571C25.385 15.4116 25.6053 15.3239 25.8333 15.3251H28.125C28.2466 15.3251 28.3631 15.2746 28.4491 15.1847C28.535 15.0948 28.5833 14.973 28.5833 14.8459V12.3542Z" fill="#FCFCFC"/>
<defs>
<filter id="filter0_d_0_1" x="0" y="0" width="49" height="48" filterUnits="userSpaceOnUse" color-interpolation-filters="sRGB">
<feFlood flood-opacity="0" result="BackgroundImageFix"/>
<feColorMatrix in="SourceAlpha" type="matrix" values="0 0 0 0 0 0 0 0 0 0 0 0 0 0 0 0 0 0 127 0" result="hardAlpha"/>
<feOffset dy="4"/>
<feGaussianBlur stdDeviation="2"/>
<feComposite in2="hardAlpha" operator="out"/>
<feColorMatrix type="matrix" values="0 0 0 0 0 0 0 0 0 0 0 0 0 0 0 0 0 0 0.25 0"/>
<feBlend mode="normal" in2="BackgroundImageFix" result="effect1_dropShadow_0_1"/>
<feBlend mode="normal" in="SourceGraphic" in2="effect1_dropShadow_0_1" result="shape"/>
</filter>
</defs>
</svg>
