<svg width="32" height="32" viewBox="0 0 32 32" fill="none" xmlns="http://www.w3.org/2000/svg">
<path d="M26.54 26.74L22.312 25.33L21.572 25.7C19.872 26.548 17.982 27 16 27C9.38 27 4 21.788 4 16C4 10.212 9.38 5 16 5C22.62 5 28 10.212 28 16C28 18.16 27.22 20.352 25.786 22.226L25.096 23.126L26.542 26.738L26.54 26.74ZM27.954 29.32C28.135 29.3806 28.3295 29.3882 28.5147 29.3418C28.6999 29.2954 28.8679 29.197 28.9989 29.0582C29.1299 28.9194 29.2185 28.746 29.2541 28.5585C29.2897 28.371 29.271 28.1772 29.2 28L27.376 23.44C29.04 21.26 30 18.652 30 16C30 9.372 24 3 16 3C8 3 2 9.372 2 16C2 22.628 8 29 16 29C18.2437 29.0063 20.4578 28.4886 22.466 27.488L27.954 29.318V29.32Z" fill="white"/>
<path d="M15.9996 17.5999C16.2097 17.5999 16.4178 17.5585 16.6119 17.4781C16.806 17.3977 16.9824 17.2798 17.131 17.1313C17.2796 16.9827 17.3974 16.8063 17.4778 16.6122C17.5582 16.4181 17.5996 16.21 17.5996 15.9999C17.5996 15.7898 17.5582 15.5817 17.4778 15.3876C17.3974 15.1935 17.2796 15.0171 17.131 14.8685C16.9824 14.72 16.806 14.6021 16.6119 14.5217C16.4178 14.4413 16.2097 14.3999 15.9996 14.3999C15.5753 14.3999 15.1683 14.5685 14.8682 14.8685C14.5682 15.1686 14.3996 15.5756 14.3996 15.9999C14.3996 16.4242 14.5682 16.8312 14.8682 17.1313C15.1683 17.4313 15.5753 17.5999 15.9996 17.5999ZM9.99961 17.5999C10.2097 17.5999 10.4178 17.5585 10.6119 17.4781C10.806 17.3977 10.9824 17.2798 11.131 17.1313C11.2796 16.9827 11.3974 16.8063 11.4778 16.6122C11.5582 16.4181 11.5996 16.21 11.5996 15.9999C11.5996 15.7898 11.5582 15.5817 11.4778 15.3876C11.3974 15.1935 11.2796 15.0171 11.131 14.8685C10.9824 14.72 10.806 14.6021 10.6119 14.5217C10.4178 14.4413 10.2097 14.3999 9.99961 14.3999C9.57526 14.3999 9.1683 14.5685 8.86824 14.8685C8.56818 15.1686 8.39961 15.5756 8.39961 15.9999C8.39961 16.4242 8.56818 16.8312 8.86824 17.1313C9.1683 17.4313 9.57526 17.5999 9.99961 17.5999ZM21.9996 17.5999C22.2097 17.5999 22.4178 17.5585 22.6119 17.4781C22.806 17.3977 22.9824 17.2798 23.131 17.1313C23.2796 16.9827 23.3974 16.8063 23.4778 16.6122C23.5582 16.4181 23.5996 16.21 23.5996 15.9999C23.5996 15.7898 23.5582 15.5817 23.4778 15.3876C23.3974 15.1935 23.2796 15.0171 23.131 14.8685C22.9824 14.72 22.806 14.6021 22.6119 14.5217C22.4178 14.4413 22.2097 14.3999 21.9996 14.3999C21.5753 14.3999 21.1683 14.5685 20.8682 14.8685C20.5682 15.1686 20.3996 15.5756 20.3996 15.9999C20.3996 16.4242 20.5682 16.8312 20.8682 17.1313C21.1683 17.4313 21.5753 17.5999 21.9996 17.5999Z" fill="white"/>
</svg>
