<svg width="49" height="48" viewBox="0 0 49 48" fill="none" xmlns="http://www.w3.org/2000/svg">
<g filter="url(#filter0_d_0_1)">
<ellipse cx="24.5" cy="20" rx="20.5" ry="20" fill="#111111" fill-opacity="0.76" shape-rendering="crispEdges"/>
</g>
<g clip-path="url(#clip0_0_1)">
<path d="M22.584 21.4583C22.9955 22.0085 23.5206 22.4638 24.1236 22.7932C24.7266 23.1227 25.3933 23.3186 26.0787 23.3677C26.764 23.4167 27.4519 23.3179 28.0957 23.0777C28.7395 22.8376 29.3241 22.4618 29.8098 21.9758L32.6848 19.1008C33.5577 18.1971 34.0406 16.9867 34.0297 15.7304C34.0188 14.474 33.5149 13.2722 32.6264 12.3838C31.738 11.4954 30.5362 10.9914 29.2799 10.9805C28.0235 10.9696 26.8131 11.4526 25.9094 12.3254L24.2611 13.9642" stroke="#FCFCFC" stroke-width="2" stroke-linecap="round" stroke-linejoin="round"/>
<path d="M26.4166 19.5417C26.0051 18.9915 25.48 18.5362 24.877 18.2068C24.274 17.8773 23.6073 17.6814 22.9219 17.6324C22.2366 17.5833 21.5487 17.6822 20.9049 17.9223C20.2611 18.1624 19.6765 18.5382 19.1908 19.0242L16.3158 21.8992C15.4429 22.8029 14.96 24.0133 14.9709 25.2696C14.9818 26.526 15.4857 27.7278 16.3741 28.6162C17.2626 29.5046 18.4644 30.0086 19.7207 30.0195C20.9771 30.0304 22.1875 29.5474 23.0912 28.6746L24.7299 27.0358" stroke="#FCFCFC" stroke-width="2" stroke-linecap="round" stroke-linejoin="round"/>
</g>
<defs>
<filter id="filter0_d_0_1" x="0" y="0" width="49" height="48" filterUnits="userSpaceOnUse" color-interpolation-filters="sRGB">
<feFlood flood-opacity="0" result="BackgroundImageFix"/>
<feColorMatrix in="SourceAlpha" type="matrix" values="0 0 0 0 0 0 0 0 0 0 0 0 0 0 0 0 0 0 127 0" result="hardAlpha"/>
<feOffset dy="4"/>
<feGaussianBlur stdDeviation="2"/>
<feComposite in2="hardAlpha" operator="out"/>
<feColorMatrix type="matrix" values="0 0 0 0 0 0 0 0 0 0 0 0 0 0 0 0 0 0 0.25 0"/>
<feBlend mode="normal" in2="BackgroundImageFix" result="effect1_dropShadow_0_1"/>
<feBlend mode="normal" in="SourceGraphic" in2="effect1_dropShadow_0_1" result="shape"/>
</filter>
<clipPath id="clip0_0_1">
<rect width="23" height="23" fill="white" transform="translate(13 9)"/>
</clipPath>
</defs>
</svg>
