<svg width="36" height="36" viewBox="0 0 36 36" fill="none" xmlns="http://www.w3.org/2000/svg">
<g clip-path="url(#clip0_98_6645)">
<path d="M27.5307 24C26.8572 24.0026 26.1911 24.1412 25.5725 24.4075C24.9538 24.6739 24.3954 25.0625 23.9307 25.55L11.7407 19.45C12.0405 18.5408 12.0405 17.5592 11.7407 16.65L23.9507 10.44C24.8253 11.3616 26.0113 11.9252 27.2782 12.0211C28.5451 12.117 29.8024 11.7384 30.8058 10.9589C31.8091 10.1794 32.4868 9.05472 32.7071 7.80342C32.9274 6.55212 32.6746 5.26361 31.9978 4.18833C31.321 3.11305 30.2686 2.32782 29.0451 1.98526C27.8216 1.64271 26.5144 1.76729 25.3777 2.33481C24.2409 2.90233 23.3558 3.87223 22.8943 5.05601C22.4328 6.23978 22.428 7.55285 22.8807 8.74L10.7907 14.89C10.1377 14.0914 9.25378 13.5144 8.25999 13.2379C7.26621 12.9615 6.21125 12.9991 5.23971 13.3458C4.26818 13.6924 3.42763 14.331 2.83329 15.1741C2.23896 16.0172 1.91992 17.0235 1.91992 18.055C1.91992 19.0865 2.23896 20.0928 2.83329 20.9359C3.42763 21.779 4.26818 22.4176 5.23971 22.7642C6.21125 23.1109 7.26621 23.1485 8.25999 22.8721C9.25378 22.5956 10.1377 22.0186 10.7907 21.22L22.8507 27.29C22.6469 27.8371 22.5419 28.4161 22.5407 29C22.5407 29.9889 22.8339 30.9556 23.3833 31.7779C23.9327 32.6001 24.7136 33.241 25.6273 33.6194C26.5409 33.9978 27.5462 34.0969 28.5161 33.9039C29.486 33.711 30.377 33.2348 31.0762 32.5355C31.7755 31.8363 32.2517 30.9454 32.4446 29.9755C32.6375 29.0055 32.5385 28.0002 32.1601 27.0866C31.7816 26.173 31.1408 25.3921 30.3185 24.8427C29.4963 24.2932 28.5296 24 27.5407 24H27.5307ZM27.5307 4C28.124 4 28.704 4.17595 29.1974 4.50559C29.6907 4.83524 30.0753 5.30377 30.3023 5.85195C30.5294 6.40013 30.5888 7.00333 30.473 7.58527C30.3573 8.16721 30.0716 8.70176 29.652 9.12132C29.2324 9.54088 28.6979 9.8266 28.116 9.94236C27.534 10.0581 26.9308 9.9987 26.3826 9.77164C25.8345 9.54458 25.3659 9.16006 25.0363 8.66671C24.7066 8.17336 24.5307 7.59334 24.5307 7C24.5307 6.20435 24.8468 5.44129 25.4094 4.87868C25.972 4.31607 26.735 4 27.5307 4ZM7.00068 21C6.40734 21 5.82732 20.8241 5.33397 20.4944C4.84062 20.1648 4.45611 19.6962 4.22904 19.1481C4.00198 18.5999 3.94257 17.9967 4.05833 17.4147C4.17408 16.8328 4.4598 16.2982 4.87936 15.8787C5.29892 15.4591 5.83347 15.1734 6.41541 15.0576C6.99735 14.9419 7.60055 15.0013 8.14873 15.2284C8.69691 15.4554 9.16545 15.8399 9.49509 16.3333C9.82473 16.8266 10.0007 17.4067 10.0007 18C10.0007 18.7956 9.68461 19.5587 9.122 20.1213C8.55939 20.6839 7.79633 21 7.00068 21ZM27.5307 32C26.9373 32 26.3573 31.8241 25.864 31.4944C25.3706 31.1648 24.9861 30.6962 24.759 30.1481C24.532 29.5999 24.4726 28.9967 24.5883 28.4147C24.7041 27.8328 24.9898 27.2982 25.4094 26.8787C25.8289 26.4591 26.3635 26.1734 26.9454 26.0576C27.5274 25.9419 28.1306 26.0013 28.6787 26.2284C29.2269 26.4554 29.6954 26.8399 30.0251 27.3333C30.3547 27.8266 30.5307 28.4067 30.5307 29C30.5307 29.7956 30.2146 30.5587 29.652 31.1213C29.0894 31.6839 28.3263 32 27.5307 32Z" fill="#013331" fill-opacity="0.68"/>
</g>
<defs>
<clipPath id="clip0_98_6645">
<rect width="36" height="36" fill="white"/>
</clipPath>
</defs>
</svg>
