<svg width="49" height="48" viewBox="0 0 49 48" fill="none" xmlns="http://www.w3.org/2000/svg">
<g filter="url(#filter0_d_0_1)">
<ellipse cx="24.5" cy="20" rx="20.5" ry="20" fill="#00ACEE"/>
</g>
<path d="M34.5249 14.75C33.787 15.0855 32.9916 15.3059 32.1674 15.4113C33.0107 14.9034 33.6624 14.0984 33.9691 13.1305C33.1736 13.6096 32.292 13.945 31.3624 14.1367C30.6053 13.3125 29.5416 12.8334 28.3341 12.8334C26.082 12.8334 24.242 14.6734 24.242 16.9446C24.242 17.2705 24.2803 17.5867 24.3474 17.8838C20.9357 17.7113 17.8978 16.0725 15.8757 13.5905C15.5211 14.1942 15.3199 14.9034 15.3199 15.6509C15.3199 17.0788 16.0386 18.3438 17.1503 19.0625C16.4699 19.0625 15.8374 18.8709 15.2816 18.5834V18.6121C15.2816 20.6055 16.6999 22.273 18.5782 22.6467C17.9752 22.8117 17.3421 22.8347 16.7286 22.7138C16.9889 23.5308 17.4987 24.2456 18.1863 24.7578C18.8739 25.2701 19.7047 25.554 20.562 25.5696C19.1088 26.72 17.3075 27.3419 15.4541 27.333C15.1282 27.333 14.8024 27.3138 14.4766 27.2755C16.2974 28.4446 18.4632 29.125 20.7824 29.125C28.3341 29.125 32.4836 22.8575 32.4836 17.4238C32.4836 17.2417 32.4836 17.0692 32.4741 16.8871C33.2791 16.3121 33.9691 15.5838 34.5249 14.75Z" fill="#FCFCFC"/>
<defs>
<filter id="filter0_d_0_1" x="0" y="0" width="49" height="48" filterUnits="userSpaceOnUse" color-interpolation-filters="sRGB">
<feFlood flood-opacity="0" result="BackgroundImageFix"/>
<feColorMatrix in="SourceAlpha" type="matrix" values="0 0 0 0 0 0 0 0 0 0 0 0 0 0 0 0 0 0 127 0" result="hardAlpha"/>
<feOffset dy="4"/>
<feGaussianBlur stdDeviation="2"/>
<feComposite in2="hardAlpha" operator="out"/>
<feColorMatrix type="matrix" values="0 0 0 0 0 0 0 0 0 0 0 0 0 0 0 0 0 0 0.25 0"/>
<feBlend mode="normal" in2="BackgroundImageFix" result="effect1_dropShadow_0_1"/>
<feBlend mode="normal" in="SourceGraphic" in2="effect1_dropShadow_0_1" result="shape"/>
</filter>
</defs>
</svg>
