<svg width="49" height="48" viewBox="0 0 49 48" fill="none" xmlns="http://www.w3.org/2000/svg">
<g filter="url(#filter0_d_0_1)">
<ellipse cx="24.5" cy="20" rx="20.5" ry="20" fill="#075E54"/>
</g>
<path d="M30.2565 13.7054C29.3779 12.8179 28.3314 12.1143 27.178 11.6355C26.0246 11.1567 24.7874 10.9123 23.5386 10.9167C18.3061 10.9167 14.0415 15.1813 14.0415 20.4138C14.0415 22.0908 14.4823 23.72 15.3065 25.1575L13.9648 30.0833L18.9961 28.7608C20.3857 29.5179 21.9478 29.9204 23.5386 29.9204C28.7711 29.9204 33.0357 25.6558 33.0357 20.4233C33.0357 17.8838 32.0486 15.4975 30.2565 13.7054ZM23.5386 28.3104C22.1203 28.3104 20.7307 27.9271 19.5136 27.2083L19.2261 27.0358L16.2361 27.8217L17.0315 24.9083L16.8398 24.6113C16.0519 23.3529 15.6334 21.8985 15.6323 20.4138C15.6323 16.0629 19.1782 12.5171 23.529 12.5171C25.6373 12.5171 27.6211 13.3413 29.1065 14.8363C29.842 15.5684 30.4249 16.4392 30.8213 17.3983C31.2178 18.3574 31.42 19.3856 31.4161 20.4233C31.4353 24.7742 27.8894 28.3104 23.5386 28.3104ZM27.8703 22.4071C27.6307 22.2921 26.4615 21.7171 26.2507 21.6308C26.0303 21.5542 25.8769 21.5158 25.714 21.7458C25.5511 21.9854 25.1007 22.5221 24.9665 22.6754C24.8323 22.8383 24.6886 22.8575 24.449 22.7329C24.2094 22.6179 23.4428 22.3592 22.5419 21.5542C21.8328 20.9217 21.3632 20.1454 21.2194 19.9058C21.0853 19.6663 21.2003 19.5417 21.3248 19.4171C21.4303 19.3117 21.5644 19.1392 21.6794 19.005C21.7944 18.8708 21.8423 18.7654 21.919 18.6121C21.9957 18.4492 21.9573 18.315 21.8998 18.2C21.8423 18.085 21.3632 16.9158 21.1715 16.4367C20.9798 15.9767 20.7786 16.0342 20.6348 16.0246H20.1748C20.0119 16.0246 19.7628 16.0821 19.5423 16.3217C19.3315 16.5613 18.7182 17.1363 18.7182 18.3054C18.7182 19.4746 19.5711 20.6054 19.6861 20.7588C19.8011 20.9217 21.3632 23.3175 23.7398 24.3429C24.3053 24.5921 24.7461 24.7358 25.0911 24.8413C25.6565 25.0233 26.174 24.9946 26.5861 24.9371C27.0461 24.87 27.9948 24.3621 28.1865 23.8063C28.3878 23.2504 28.3878 22.7808 28.3207 22.6754C28.2536 22.57 28.1098 22.5221 27.8703 22.4071Z" fill="#FCFCFC"/>
<defs>
<filter id="filter0_d_0_1" x="0" y="0" width="49" height="48" filterUnits="userSpaceOnUse" color-interpolation-filters="sRGB">
<feFlood flood-opacity="0" result="BackgroundImageFix"/>
<feColorMatrix in="SourceAlpha" type="matrix" values="0 0 0 0 0 0 0 0 0 0 0 0 0 0 0 0 0 0 127 0" result="hardAlpha"/>
<feOffset dy="4"/>
<feGaussianBlur stdDeviation="2"/>
<feComposite in2="hardAlpha" operator="out"/>
<feColorMatrix type="matrix" values="0 0 0 0 0 0 0 0 0 0 0 0 0 0 0 0 0 0 0.25 0"/>
<feBlend mode="normal" in2="BackgroundImageFix" result="effect1_dropShadow_0_1"/>
<feBlend mode="normal" in="SourceGraphic" in2="effect1_dropShadow_0_1" result="shape"/>
</filter>
</defs>
</svg>
