<svg width="47" height="47" viewBox="0 0 47 47" fill="none" xmlns="http://www.w3.org/2000/svg">
<path d="M33.3897 39.715C31.4705 41.5754 29.3751 41.2817 27.358 40.4004C25.2235 39.4996 23.2651 39.4604 21.013 40.4004C18.193 41.6146 16.7047 41.2621 15.0205 39.715C5.46387 29.8646 6.87387 14.8637 17.723 14.3154C20.3668 14.4525 22.2076 15.7646 23.7547 15.8821C26.0655 15.4121 28.2785 14.0608 30.746 14.2371C33.703 14.4721 35.9355 15.6471 37.4043 17.7621C31.2943 21.4242 32.7435 29.4729 38.3443 31.725C37.228 34.6625 35.7789 37.5804 33.3701 39.7346L33.3897 39.715ZM23.5589 14.1979C23.2651 9.83083 26.8097 6.2275 30.883 5.875C31.451 10.9275 26.3005 14.6875 23.5589 14.1979Z" fill="#111111"/>
</svg>
