<svg width="47" height="47" viewBox="0 0 47 47" fill="none" xmlns="http://www.w3.org/2000/svg">
<g filter="url(#filter0_d_0_1)">
<circle cx="23.5" cy="19.5" r="19.5" fill="#111111"/>
</g>
<path d="M19.9091 10C16.6511 10 14 12.6511 14 15.9091V24.0909C14 27.3489 16.6511 30 19.9091 30H28.0909C31.3489 30 34 27.3489 34 24.0909V15.9091C34 12.6511 31.3489 10 28.0909 10H19.9091ZM19.9091 10.9091H28.0909C30.8575 10.9091 33.0909 13.1425 33.0909 15.9091V24.0909C33.0909 26.8575 30.8575 29.0909 28.0909 29.0909H19.9091C17.1425 29.0909 14.9091 26.8575 14.9091 24.0909V15.9091C14.9091 13.1425 17.1425 10.9091 19.9091 10.9091ZM29.4545 13.6364C29.2134 13.6364 28.9822 13.7321 28.8117 13.9026C28.6412 14.0731 28.5455 14.3043 28.5455 14.5455C28.5455 14.7866 28.6412 15.0178 28.8117 15.1883C28.9822 15.3588 29.2134 15.4545 29.4545 15.4545C29.6957 15.4545 29.9269 15.3588 30.0974 15.1883C30.2679 15.0178 30.3636 14.7866 30.3636 14.5455C30.3636 14.3043 30.2679 14.0731 30.0974 13.9026C29.9269 13.7321 29.6957 13.6364 29.4545 13.6364ZM24 15C21.244 15 19 17.244 19 20C19 22.756 21.244 25 24 25C26.756 25 29 22.756 29 20C29 17.244 26.756 15 24 15ZM24 15.9091C26.2647 15.9091 28.0909 17.7353 28.0909 20C28.0909 22.2647 26.2647 24.0909 24 24.0909C21.7353 24.0909 19.9091 22.2647 19.9091 20C19.9091 17.7353 21.7353 15.9091 24 15.9091Z" fill="#FCFCFC"/>
<defs>
<filter id="filter0_d_0_1" x="0" y="0" width="47" height="47" filterUnits="userSpaceOnUse" color-interpolation-filters="sRGB">
<feFlood flood-opacity="0" result="BackgroundImageFix"/>
<feColorMatrix in="SourceAlpha" type="matrix" values="0 0 0 0 0 0 0 0 0 0 0 0 0 0 0 0 0 0 127 0" result="hardAlpha"/>
<feOffset dy="4"/>
<feGaussianBlur stdDeviation="2"/>
<feComposite in2="hardAlpha" operator="out"/>
<feColorMatrix type="matrix" values="0 0 0 0 0 0 0 0 0 0 0 0 0 0 0 0 0 0 0.25 0"/>
<feBlend mode="normal" in2="BackgroundImageFix" result="effect1_dropShadow_0_1"/>
<feBlend mode="normal" in="SourceGraphic" in2="effect1_dropShadow_0_1" result="shape"/>
</filter>
</defs>
</svg>
