<svg width="39" height="39" viewBox="0 0 39 39" fill="none" xmlns="http://www.w3.org/2000/svg">
<circle cx="19.5" cy="19.5" r="19.5" fill="#FCFCFC"/>
<path d="M14 30H9V15H14V30ZM11.501 13C10.118 13 9 11.879 9 10.499C9 9.119 10.12 8 11.501 8C12.879 8 14 9.121 14 10.499C14 11.879 12.879 13 11.501 13ZM32 30H27.193V22.7C27.193 20.959 27.16 18.72 24.694 18.72C22.191 18.72 21.806 20.616 21.806 22.574V30H17V14.989H21.614V17.04H21.679C22.321 15.86 23.89 14.616 26.23 14.616C31.1 14.616 32 17.725 32 21.767V30Z" fill="#111111"/>
</svg>
