<svg width="39" height="39" viewBox="0 0 39 39" fill="none" xmlns="http://www.w3.org/2000/svg">
<circle cx="19.5" cy="19.5" r="19.5" fill="#FCFCFC"/>
<path d="M33 11.937C32.043 12.362 31.015 12.648 29.936 12.777C31.038 12.117 31.883 11.072 32.281 9.82604C31.251 10.437 30.109 10.881 28.893 11.121C27.92 10.084 26.534 9.43604 25 9.43604C22.054 9.43604 19.666 11.825 19.666 14.77C19.666 15.188 19.714 15.596 19.804 15.985C15.371 15.763 11.441 13.639 8.80902 10.411C8.35102 11.199 8.08802 12.115 8.08802 13.094C8.08802 14.944 9.02902 16.577 10.46 17.533C9.58602 17.505 8.76302 17.265 8.04402 16.866C8.04402 16.889 8.04402 16.91 8.04402 16.933C8.04402 19.518 9.88202 21.674 12.323 22.163C11.876 22.285 11.404 22.35 10.917 22.35C10.574 22.35 10.239 22.316 9.91402 22.255C10.593 24.374 12.563 25.917 14.897 25.96C13.072 27.391 10.772 28.244 8.27202 28.244C7.84202 28.244 7.41702 28.219 6.99902 28.169C9.36002 29.682 12.163 30.565 15.176 30.565C24.988 30.565 30.352 22.437 30.352 15.388C30.352 15.157 30.347 14.927 30.337 14.698C31.38 13.945 32.285 13.006 33 11.937Z" fill="#111111"/>
</svg>
