<svg width="39" height="39" viewBox="0 0 39 39" fill="none" xmlns="http://www.w3.org/2000/svg">
<circle cx="19.5" cy="19.5" r="19.5" fill="#FCFCFC"/>
<path d="M20 7C13.373 7 8 12.373 8 19C8 21.2512 8.63234 23.3501 9.71094 25.1504L8.10742 31L14.082 29.4316C15.8294 30.4251 17.8465 31 20 31C26.627 31 32 25.627 32 19C32 12.373 26.627 7 20 7ZM15.8926 13.4023C16.0876 13.4023 16.2879 13.4012 16.4609 13.4102C16.6749 13.4152 16.9079 13.4308 17.1309 13.9238C17.3959 14.5098 17.9729 15.9799 18.0469 16.1289C18.1209 16.2779 18.1733 16.4534 18.0703 16.6484C17.9723 16.8484 17.9213 16.9695 17.7773 17.1465C17.6283 17.3185 17.4651 17.5321 17.3301 17.6621C17.1811 17.8111 17.0272 17.9745 17.1992 18.2715C17.3712 18.5685 17.9686 19.5421 18.8516 20.3281C19.9866 21.3421 20.9442 21.6537 21.2422 21.8027C21.5402 21.9517 21.7128 21.9285 21.8848 21.7285C22.0618 21.5335 22.6281 20.8644 22.8281 20.5664C23.0231 20.2684 23.2222 20.32 23.4922 20.418C23.7662 20.516 25.2274 21.2358 25.5254 21.3848C25.8234 21.5338 26.0187 21.6075 26.0938 21.7285C26.1707 21.8535 26.1708 22.4486 25.9238 23.1426C25.6768 23.8356 24.4639 24.5057 23.9199 24.5527C23.3709 24.6037 22.8586 24.7995 20.3516 23.8125C17.3276 22.6215 15.4205 19.5242 15.2715 19.3242C15.1225 19.1292 14.0605 17.7139 14.0605 16.2539C14.0605 14.7889 14.8287 14.0714 15.0977 13.7734C15.3717 13.4754 15.6926 13.4023 15.8926 13.4023Z" fill="#111111"/>
</svg>
