<svg width="37" height="37" viewBox="0 0 37 37" fill="none" xmlns="http://www.w3.org/2000/svg">
<path d="M32.0267 23.1683L25.199 20.1086C24.8897 19.976 24.5522 19.9227 24.217 19.9535C23.8819 19.9843 23.5597 20.0982 23.2797 20.2849C23.2512 20.3031 23.2242 20.3234 23.1987 20.3456L19.6303 23.3808C19.5932 23.4009 19.552 23.4122 19.5099 23.4137C19.4677 23.4152 19.4258 23.4069 19.3874 23.3894C17.0937 22.2823 14.7176 19.9207 13.6062 17.6588C13.5877 17.621 13.5781 17.5794 13.5781 17.5374C13.5781 17.4953 13.5877 17.4537 13.6062 17.4159L16.6515 13.8027C16.6733 13.7759 16.6936 13.7479 16.7122 13.7188C16.8963 13.4377 17.0075 13.1152 17.0358 12.7804C17.064 12.4455 17.0084 12.1089 16.874 11.8009L13.836 4.98481C13.6635 4.58245 13.3651 4.2469 12.9857 4.02851C12.6062 3.81013 12.1662 3.7207 11.7316 3.77364C9.84292 4.02194 8.10925 4.94946 6.85459 6.38286C5.59993 7.81627 4.91012 9.65748 4.91408 11.5624C4.91408 22.8792 14.1207 32.0859 25.4375 32.0859C27.3424 32.0895 29.1834 31.3996 30.6168 30.145C32.0501 28.8904 32.9777 27.1569 33.2263 25.2683C33.2791 24.8358 33.1909 24.3977 32.9748 24.0194C32.7586 23.641 32.4261 23.3425 32.0267 23.1683ZM25.4375 30.3515C15.0775 30.3515 6.64845 21.9224 6.64845 11.5624C6.64362 10.0794 7.17889 8.64541 8.15425 7.52829C9.1296 6.41116 10.4783 5.68736 11.9484 5.49212H11.9817C12.0399 5.49321 12.0965 5.51186 12.1439 5.54565C12.1914 5.57944 12.2275 5.62677 12.2476 5.68145L15.2972 12.4903C15.3146 12.5282 15.3236 12.5693 15.3236 12.611C15.3236 12.6527 15.3146 12.6938 15.2972 12.7317L12.2462 16.3536C12.2234 16.3795 12.2026 16.407 12.184 16.436C11.9931 16.7275 11.8807 17.0633 11.8576 17.411C11.8346 17.7586 11.9017 18.1063 12.0525 18.4204C13.3345 21.0451 15.9794 23.6698 18.633 24.9518C18.9489 25.1018 19.2983 25.1673 19.6471 25.1419C19.9959 25.1166 20.3322 25.0013 20.6232 24.8073C20.6506 24.7885 20.6781 24.7682 20.7041 24.7466L24.2711 21.7114C24.3064 21.6925 24.3453 21.6814 24.3852 21.6789C24.4251 21.6764 24.4651 21.6826 24.5024 21.697L31.3315 24.7567C31.3873 24.7804 31.4342 24.8211 31.4656 24.873C31.497 24.9249 31.5112 24.9853 31.5064 25.0457C31.3122 26.5165 30.589 27.8662 29.4722 28.8427C28.3553 29.8191 26.921 30.3555 25.4375 30.3515Z" fill="#FCFCFC"/>
</svg>
