<svg width="20" height="20" viewBox="0 0 16 16" fill="none" xmlns="http://www.w3.org/2000/svg">
<path d="M8 5C8.09946 5 8.19484 5.03951 8.26517 5.10984C8.33549 5.18016 8.375 5.27554 8.375 5.375V7.625H10.625C10.7245 7.625 10.8198 7.66451 10.8902 7.73484C10.9605 7.80516 11 7.90054 11 8C11 8.09946 10.9605 8.19484 10.8902 8.26517C10.8198 8.33549 10.7245 8.375 10.625 8.375H8.375V10.625C8.375 10.7245 8.33549 10.8198 8.26517 10.8902C8.19484 10.9605 8.09946 11 8 11C7.90054 11 7.80516 10.9605 7.73484 10.8902C7.66451 10.8198 7.625 10.7245 7.625 10.625V8.375H5.375C5.27554 8.375 5.18016 8.33549 5.10984 8.26517C5.03951 8.19484 5 8.09946 5 8C5 7.90054 5.03951 7.80516 5.10984 7.73484C5.18016 7.66451 5.27554 7.625 5.375 7.625H7.625V5.375C7.625 5.27554 7.66451 5.18016 7.73484 5.10984C7.80516 5.03951 7.90054 5 8 5Z" fill="#FCFCFC"/>
</svg>
