<svg width="31" height="31" viewBox="0 0 31 31" fill="none" xmlns="http://www.w3.org/2000/svg">
<path d="M10.334 7.74992C10.334 6.37963 10.8783 5.06547 11.8473 4.09653C12.8162 3.1276 14.1304 2.58325 15.5007 2.58325C16.8709 2.58325 18.1851 3.1276 19.154 4.09653C20.123 5.06547 20.6673 6.37963 20.6673 7.74992V15.4999C20.6673 16.8702 20.123 18.1844 19.154 19.1533C18.1851 20.1222 16.8709 20.6666 15.5007 20.6666C14.1304 20.6666 12.8162 20.1222 11.8473 19.1533C10.8783 18.1844 10.334 16.8702 10.334 15.4999V7.74992ZM15.5007 4.19784C14.5586 4.19784 13.6551 4.57207 12.9889 5.23822C12.3228 5.90436 11.9486 6.80785 11.9486 7.74992V15.4999C11.9486 16.442 12.3228 17.3455 12.9889 18.0116C13.6551 18.6778 14.5586 19.052 15.5007 19.052C16.4427 19.052 17.3462 18.6778 18.0124 18.0116C18.6785 17.3455 19.0527 16.442 19.0527 15.4999V7.74992C19.0527 6.80785 18.6785 5.90436 18.0124 5.23822C17.3462 4.57207 16.4427 4.19784 15.5007 4.19784ZM16.1465 24.3575C20.8385 24.0262 24.5423 20.1144 24.5423 15.3385C24.5423 15.1244 24.4573 14.919 24.3059 14.7676C24.1545 14.6162 23.9491 14.5312 23.735 14.5312C23.5209 14.5312 23.3156 14.6162 23.1642 14.7676C23.0128 14.919 22.9277 15.1244 22.9277 15.3385C22.9277 19.4401 19.6023 22.7655 15.5007 22.7655C11.399 22.7655 8.07357 19.4401 8.07357 15.3385C8.07357 15.1244 7.98851 14.919 7.83712 14.7676C7.68572 14.6162 7.48038 14.5312 7.26628 14.5312C7.05217 14.5312 6.84683 14.6162 6.69543 14.7676C6.54404 14.919 6.45898 15.1244 6.45898 15.3385C6.45898 20.0046 9.99363 23.8454 14.5319 24.3285V27.6093C14.5319 27.8234 14.617 28.0287 14.7684 28.1801C14.9197 28.3315 15.1251 28.4166 15.3392 28.4166C15.5533 28.4166 15.7586 28.3315 15.91 28.1801C16.0614 28.0287 16.1465 27.8234 16.1465 27.6093V24.3575Z" fill="#013331"/>
</svg>
